<?xml version="1.0" encoding="UTF-8"?>
<svg xmlns="http://www.w3.org/2000/svg" viewBox="0 0 512 512" fill="white">
  <!-- Tractor body -->
  <path d="M352 390.4V336c0-13.2-10.8-24-24-24h-16c-3.5 0-6.8.8-9.8 2.1l-82.6-60.2c-9.6-7-21.3-10.9-33.3-10.9H96v16c0 8.8-7.2 16-16 16H48c-8.8 0-16-7.2-16-16v-16H16c-8.8 0-16 7.2-16 16v96c0 8.8 7.2 16 16 16h16.2c7.4 28.7 33.2 50 64.3 50 31.3 0 57.3-21.6 64.5-50.5 6.2 2.9 13.1 4.5 20.5 4.5h97c7.7 0 14.6-1.6 20.8-4.5 7 29.1 33.2 50.5 64.7 50.5 31.3 0 57.3-21.6 64.5-50.5H448c8.8 0 16-7.2 16-16v-11.5c0-11.7-6.4-22.4-16.8-28l-19.2-10.5c-9.7-5.3-15.9-15.5-15.9-26.6z"/>
  
  <!-- Large rear wheel -->
  <circle cx="96" cy="400" r="48"/>
  
  <!-- Front wheel -->
  <circle cx="352" cy="400" r="48"/>
  
  <!-- Cab -->
  <path d="M312 312h16c4.4 0 8 3.6 8 8v56h-24v-64z"/>
  
  <!-- Steering wheel -->
  <circle cx="288" cy="300" r="12"/>
  
  <!-- Front axle -->
  <rect x="320" y="384" width="64" height="8" rx="4"/>
  
  <!-- Driver seat -->
  <rect x="264" y="304" width="24" height="32" rx="4"/>
  
  <!-- Fenders -->
  <path d="M112 352h-32c-8.8 0-16 7.2-16 16v32h64v-32c0-8.8-7.2-16-16-16z"/>
  
  <!-- Headlights -->
  <circle cx="16" cy="336" r="8"/>
  <circle cx="16" cy="368" r="8"/>
</svg> 